<svg width="100%" viewBox="0 0 680 515" xmlns="http://www.w3.org/2000/svg"
     font-family="system-ui, -apple-system, BlinkMacSystemFont, sans-serif">
  <defs>
    <marker id="arrow" viewBox="0 0 10 10" refX="8" refY="5" markerWidth="6" markerHeight="6" orient="auto-start-reverse">
      <path d="M2 1L8 5L2 9" fill="none" stroke="#4A5A50" stroke-width="1.5" stroke-linecap="round" stroke-linejoin="round"/>
    </marker>
  </defs>

  <!-- ── Section 1: SOC / peripheral manager ── -->
  <text font-size="14" font-weight="600" fill="#1A2A20" x="340" y="18" text-anchor="middle">SOC / peripheral manager</text>

  <rect x="20" y="28" width="155" height="36" rx="4" fill="#E6F1FB" stroke="#378ADD" stroke-width="0.5"/>
  <text font-size="12" fill="#0C447C" x="97" y="46" text-anchor="middle" dominant-baseline="central">config / settings</text>

  <rect x="20" y="72" width="155" height="36" rx="4" fill="#FAEEDA" stroke="#BA7517" stroke-width="0.5"/>
  <text font-size="12" fill="#633806" x="97" y="90" text-anchor="middle" dominant-baseline="central">allocator</text>

  <line x1="175" y1="46" x2="258" y2="57" stroke="#4A5A50" stroke-width="1.5" marker-end="url(#arrow)"/>
  <line x1="175" y1="90" x2="258" y2="79" stroke="#4A5A50" stroke-width="1.5" marker-end="url(#arrow)"/>

  <rect x="258" y="36" width="175" height="62" rx="6" fill="#EAF3DE" stroke="#3B6D11" stroke-width="0.5"/>
  <text font-size="14" font-weight="600" fill="#27500A" x="345" y="57" text-anchor="middle" dominant-baseline="central">hal::lpc40::i2c</text>
  <text font-size="12" fill="#3B6D11" x="345" y="77" text-anchor="middle" dominant-baseline="central">peripheral manager</text>

  <line x1="433" y1="67" x2="498" y2="67" stroke="#4A5A50" stroke-width="1.5" marker-end="url(#arrow)"/>

  <rect x="498" y="47" width="155" height="40" rx="4" fill="#E1F5EE" stroke="#0F6E56" stroke-width="0.5"/>
  <text font-size="14" font-weight="600" fill="#085041" x="575" y="59" text-anchor="middle" dominant-baseline="central">ptr&lt;hal::i2c&gt;</text>
  <text font-size="12" fill="#0F6E56" x="575" y="75" text-anchor="middle" dominant-baseline="central">acquire_bus()</text>

  <line x1="20" y1="122" x2="660" y2="122" stroke="#C8D8CC" stroke-width="0.5" stroke-dasharray="4 4"/>

  <!-- ── Section 2: external device manager ── -->
  <text font-size="14" font-weight="600" fill="#1A2A20" x="340" y="140" text-anchor="middle">external device manager</text>

  <rect x="20" y="152" width="155" height="36" rx="4" fill="#E1F5EE" stroke="#0F6E56" stroke-width="0.5"/>
  <text font-size="14" font-weight="600" fill="#085041" x="97" y="170" text-anchor="middle" dominant-baseline="central">ptr&lt;In1&gt;</text>

  <rect x="20" y="196" width="155" height="36" rx="4" fill="#E1F5EE" stroke="#0F6E56" stroke-width="0.5"/>
  <text font-size="14" font-weight="600" fill="#085041" x="97" y="214" text-anchor="middle" dominant-baseline="central">ptr&lt;In2&gt;</text>

  <text font-size="12" fill="#4A5A50" x="97" y="244" text-anchor="middle">· · ·</text>

  <rect x="20" y="252" width="155" height="36" rx="4" fill="#E6F1FB" stroke="#378ADD" stroke-width="0.5"/>
  <text font-size="12" fill="#0C447C" x="97" y="270" text-anchor="middle" dominant-baseline="central">config / settings</text>

  <rect x="20" y="296" width="155" height="36" rx="4" fill="#FAEEDA" stroke="#BA7517" stroke-width="0.5"/>
  <text font-size="12" fill="#633806" x="97" y="314" text-anchor="middle" dominant-baseline="central">allocator</text>

  <line x1="175" y1="170" x2="258" y2="200" stroke="#4A5A50" stroke-width="1.5" marker-end="url(#arrow)"/>
  <line x1="175" y1="214" x2="258" y2="222" stroke="#4A5A50" stroke-width="1.5" marker-end="url(#arrow)"/>
  <line x1="175" y1="270" x2="258" y2="252" stroke="#4A5A50" stroke-width="1.5" marker-end="url(#arrow)"/>
  <line x1="175" y1="314" x2="258" y2="278" stroke="#4A5A50" stroke-width="1.5" marker-end="url(#arrow)"/>

  <rect x="258" y="175" width="215" height="130" rx="6" fill="#EAF3DE" stroke="#3B6D11" stroke-width="0.5"/>
  <text font-size="14" font-weight="600" fill="#27500A" x="365" y="230" text-anchor="middle" dominant-baseline="central">hal::sensors::mpu6050</text>
  <text font-size="12" fill="#3B6D11" x="365" y="250" text-anchor="middle" dominant-baseline="central">device manager</text>

  <line x1="473" y1="216" x2="498" y2="216" stroke="#4A5A50" stroke-width="1.5" marker-end="url(#arrow)"/>
  <line x1="473" y1="264" x2="498" y2="264" stroke="#4A5A50" stroke-width="1.5" marker-end="url(#arrow)"/>

  <rect x="498" y="196" width="155" height="40" rx="4" fill="#E1F5EE" stroke="#0F6E56" stroke-width="0.5"/>
  <text font-size="14" font-weight="600" fill="#085041" x="575" y="208" text-anchor="middle" dominant-baseline="central">ptr&lt;hal::accel&gt;</text>
  <text font-size="12" fill="#0F6E56" x="575" y="224" text-anchor="middle" dominant-baseline="central">acquire_accel()</text>

  <rect x="498" y="244" width="155" height="40" rx="4" fill="#E1F5EE" stroke="#0F6E56" stroke-width="0.5"/>
  <text font-size="14" font-weight="600" fill="#085041" x="575" y="256" text-anchor="middle" dominant-baseline="central">ptr&lt;hal::gyro&gt;</text>
  <text font-size="12" fill="#0F6E56" x="575" y="272" text-anchor="middle" dominant-baseline="central">acquire_gyro()</text>

  <line x1="20" y1="348" x2="660" y2="348" stroke="#C8D8CC" stroke-width="0.5" stroke-dasharray="4 4"/>

  <!-- ── Section 3: adapter ── -->
  <text font-size="14" font-weight="600" fill="#1A2A20" x="340" y="366" text-anchor="middle">adapter</text>

  <rect x="20" y="376" width="155" height="44" rx="4" fill="#E1F5EE" stroke="#0F6E56" stroke-width="0.5"/>
  <text font-size="14" font-weight="600" fill="#085041" x="97" y="390" text-anchor="middle" dominant-baseline="central">ptr&lt;interface&gt;</text>
  <text font-size="12" fill="#0F6E56" x="97" y="408" text-anchor="middle" dominant-baseline="central">(one or more)</text>

  <rect x="20" y="428" width="155" height="36" rx="4" fill="#FAEEDA" stroke="#BA7517" stroke-width="0.5"/>
  <text font-size="12" fill="#633806" x="97" y="446" text-anchor="middle" dominant-baseline="central">allocator</text>

  <line x1="175" y1="398" x2="258" y2="410" stroke="#4A5A50" stroke-width="1.5" marker-end="url(#arrow)"/>
  <line x1="175" y1="446" x2="258" y2="432" stroke="#4A5A50" stroke-width="1.5" marker-end="url(#arrow)"/>

  <rect x="258" y="388" width="175" height="64" rx="6" fill="#EAF3DE" stroke="#3B6D11" stroke-width="0.5"/>
  <text font-size="14" font-weight="600" fill="#27500A" x="345" y="410" text-anchor="middle" dominant-baseline="central">hal::soft_i2c</text>
  <text font-size="12" fill="#3B6D11" x="345" y="432" text-anchor="middle" dominant-baseline="central">adapter</text>

  <line x1="433" y1="420" x2="498" y2="420" stroke="#4A5A50" stroke-width="1.5" marker-end="url(#arrow)"/>

  <rect x="498" y="400" width="155" height="40" rx="4" fill="#E1F5EE" stroke="#0F6E56" stroke-width="0.5"/>
  <text font-size="14" font-weight="600" fill="#085041" x="575" y="414" text-anchor="middle" dominant-baseline="central">ptr&lt;hal::i2c&gt;</text>
  <text font-size="12" fill="#0F6E56" x="575" y="430" text-anchor="middle" dominant-baseline="central">implements hal::i2c</text>

  <!-- ── Legend ── -->
  <line x1="20" y1="474" x2="660" y2="474" stroke="#C8D8CC" stroke-width="0.5"/>

  <rect x="20" y="484" width="12" height="12" rx="2" fill="#E1F5EE" stroke="#0F6E56" stroke-width="0.5"/>
  <text font-size="12" fill="#333333" x="38" y="494">ptr&lt;interface&gt;</text>

  <rect x="160" y="484" width="12" height="12" rx="2" fill="#E6F1FB" stroke="#378ADD" stroke-width="0.5"/>
  <text font-size="12" fill="#333333" x="178" y="494">config / settings</text>

  <rect x="316" y="484" width="12" height="12" rx="2" fill="#FAEEDA" stroke="#BA7517" stroke-width="0.5"/>
  <text font-size="12" fill="#333333" x="334" y="494">allocator</text>

  <rect x="420" y="484" width="12" height="12" rx="2" fill="#EAF3DE" stroke="#3B6D11" stroke-width="0.5"/>
  <text font-size="12" fill="#333333" x="438" y="494">manager / adapter</text>
</svg>